<svg id="Layer_2_00000013914281489754342920000002019831855568685483_" enable-background="new 0 0 512 512" height="512" viewBox="0 0 512 512" width="512" xmlns="http://www.w3.org/2000/svg"><g id="Icon"><path id="_03" d="m413.8 383-81.5-81.5c37-51.8 32.2-124.1-14.2-170.6-51.7-51.7-135.6-51.7-187.4 0s-51.7 135.6 0 187.4c46.6 46.6 119.4 51.2 171.1 13.8l81.4 81.4c8.4 8.4 22.1 8.4 30.5 0s8.5-22.1.1-30.5zm-247.7-100c-32.2-32.2-32.2-84.4 0-116.7s84.4-32.2 116.7 0 32.2 84.4 0 116.7-84.5 32.2-116.7 0zm118.8-58.4c0 6.9-5.6 12.5-12.5 12.5h-35.5v35.5c0 6.9-5.6 12.5-12.5 12.5s-12.5-5.6-12.5-12.5v-35.5h-35.5c-6.9 0-12.5-5.6-12.5-12.5s5.6-12.5 12.5-12.5h35.5v-35.5c0-6.9 5.6-12.5 12.5-12.5 6.9 0 12.5 5.6 12.5 12.5v35.5h35.5c6.9 0 12.5 5.6 12.5 12.5z"/></g></svg>